<?xml version="1.0" encoding="UTF-8"?>
<svg version="1.1" xmlns="http://www.w3.org/2000/svg" width="217" height="46">
<path d="M0 0 C6.04700319 2.67056366 9.80563102 7.76354317 12.56567383 13.63842773 C14.32130905 18.7597508 13.83490076 24.14907589 13.8203125 29.51171875 C13.83642578 30.70410156 13.85253906 31.89648438 13.86914062 33.125 C13.86978516 34.26582031 13.87042969 35.40664063 13.87109375 36.58203125 C13.87407471 37.62375488 13.87705566 38.66547852 13.88012695 39.73876953 C13.5078125 42.38671875 13.5078125 42.38671875 12.26318359 44.23120117 C10.03611125 45.69722807 8.71242387 45.73312032 6.05859375 45.6796875 C5.21103516 45.67001953 4.36347656 45.66035156 3.49023438 45.65039062 C2.60916016 45.62525391 1.72808594 45.60011719 0.8203125 45.57421875 C-0.07236328 45.56068359 -0.96503906 45.54714844 -1.88476562 45.53320312 C-4.08784916 45.49785954 -6.28971332 45.44852368 -8.4921875 45.38671875 C-8.60063781 42.82307392 -8.67968494 40.26405596 -8.7421875 37.69921875 C-8.79246094 36.61737305 -8.79246094 36.61737305 -8.84375 35.51367188 C-8.91458392 31.63551466 -8.75138408 29.80406918 -6.6484375 26.41796875 C-4.22214994 24.13233554 -2.77317639 23.66013449 0.5078125 23.38671875 C0.5078125 22.72671875 0.5078125 22.06671875 0.5078125 21.38671875 C-0.6059375 21.29390625 -0.6059375 21.29390625 -1.7421875 21.19921875 C-5.36347863 20.12929182 -6.47930865 18.51786363 -8.4921875 15.38671875 C-8.4921875 14.39671875 -8.4921875 13.40671875 -8.4921875 12.38671875 C-9.1521875 12.38671875 -9.8121875 12.38671875 -10.4921875 12.38671875 C-10.585 13.50046875 -10.585 13.50046875 -10.6796875 14.63671875 C-11.78784356 18.3874008 -13.18200972 19.33092413 -16.4921875 21.38671875 C-19.28582683 21.85393269 -21.98245872 21.7678679 -24.8046875 21.63671875 C-25.91553711 21.60964844 -25.91553711 21.60964844 -27.04882812 21.58203125 C-28.8638446 21.53519212 -30.67818916 21.46345664 -32.4921875 21.38671875 C-32.46313601 15.11159702 -31.26690699 10.98402354 -27.25 6.11328125 C-24.57506767 3.48590328 -21.86814216 2.00977387 -18.4921875 0.38671875 C-13.37900646 -2.16987177 -5.425899 -1.33521339 0 0 Z " fill="#5E6EFE" transform="translate(32.4921875,0.61328125)"/>
<path d="M0 0 C2.39652528 -0.08139142 4.79025436 -0.14067009 7.1875 -0.1875 C7.86103516 -0.21263672 8.53457031 -0.23777344 9.22851562 -0.26367188 C13.70855667 -0.32923345 16.46037634 0.22395146 20 3 C22.52775351 6.79163027 22.22443035 9.80874031 22.125 14.1875 C22.11597656 14.93708984 22.10695313 15.68667969 22.09765625 16.45898438 C22.07412578 18.30612654 22.03825561 20.15310412 22 22 C18.89601022 22.08710289 15.79233452 22.14042309 12.6875 22.1875 C11.80642578 22.21263672 10.92535156 22.23777344 10.01757812 22.26367188 C8.74624023 22.27817383 8.74624023 22.27817383 7.44921875 22.29296875 C6.66893311 22.3086792 5.88864746 22.32438965 5.0847168 22.34057617 C3 22 3 22 1.24023438 20.75976562 C-0.33227736 18.52853244 -0.34758074 17.26317684 -0.29296875 14.55078125 C-0.28330078 13.70322266 -0.27363281 12.85566406 -0.26367188 11.98242188 C-0.23853516 11.10134766 -0.21339844 10.22027344 -0.1875 9.3125 C-0.17396484 8.41982422 -0.16042969 7.52714844 -0.14648438 6.60742188 C-0.11114079 4.40433834 -0.06180493 2.20247418 0 0 Z " fill="#5E6EFE" transform="translate(0,24)"/>
<path d="M0 0 C2.6875 1.75 2.6875 1.75 4 4 C4 5.32 4 6.64 4 8 C2.02 8 0.04 8 -2 8 C-2.33 7.34 -2.66 6.68 -3 6 C-4.98 6 -6.96 6 -9 6 C-8.15131774 8.25289685 -8.15131774 8.25289685 -5.56640625 8.96484375 C-3.5669217 9.61227113 -1.56692203 10.25810985 0.43359375 10.90234375 C3 12 3 12 5 15 C5.59111649 18.88447979 5.29788155 20.52749823 3.1875 23.875 C-1.44055286 26.96036857 -5.59101811 27.02178668 -11 26 C-14.1875 23.75 -14.1875 23.75 -16 21 C-16 19.68 -16 18.36 -16 17 C-14.35 16.67 -12.7 16.34 -11 16 C-10.4121875 16.99 -10.4121875 16.99 -9.8125 18 C-8.14583333 20.29166667 -8.14583333 20.29166667 -5.3125 20.25 C-4.549375 20.1675 -3.78625 20.085 -3 20 C-2.67 19.01 -2.34 18.02 -2 17 C-2.68707031 16.81824219 -3.37414062 16.63648437 -4.08203125 16.44921875 C-4.98308594 16.19785156 -5.88414063 15.94648438 -6.8125 15.6875 C-7.70582031 15.44386719 -8.59914063 15.20023438 -9.51953125 14.94921875 C-12.09057309 13.96533975 -13.29968455 13.1321416 -15 11 C-15.875 8.625 -15.875 8.625 -16 6 C-12.54749772 -1.2338143 -7.38642752 -0.79646855 0 0 Z " fill="#5E6EFE" transform="translate(69,11)"/>
<path d="M0 0 C1.98 0 3.96 0 6 0 C6.33 2.31 6.66 4.62 7 7 C8.918125 6.938125 8.918125 6.938125 10.875 6.875 C13.0546875 6.8046875 13.0546875 6.8046875 15 7 C17 9 17 9 17.1953125 12.9140625 C17.18200376 14.48449351 17.15813602 16.05486221 17.125 17.625 C17.11597656 18.42679688 17.10695312 19.22859375 17.09765625 20.0546875 C17.07406223 22.03658523 17.03819065 24.01832981 17 26 C15.35 26 13.7 26 12 26 C11.93941406 25.24074219 11.87882813 24.48148438 11.81640625 23.69921875 C11.73261719 22.70535156 11.64882812 21.71148437 11.5625 20.6875 C11.48128906 19.70136719 11.40007812 18.71523438 11.31640625 17.69921875 C11.08187441 14.90624401 11.08187441 14.90624401 10 12 C9.01 12.33 8.02 12.66 7 13 C6.67 17.29 6.34 21.58 6 26 C4.02 26 2.04 26 0 26 C0 17.42 0 8.84 0 0 Z " fill="#5E6EFE" transform="translate(171,11)"/>
<path d="M0 0 C1.65 0 3.3 0 5 0 C5.33 3.63 5.66 7.26 6 11 C6.99 9.68 7.98 8.36 9 7 C11.76142303 6.47200324 14.16365545 6.81401019 17 7 C15.35 9.31 13.7 11.62 12 14 C12.3609375 14.69867188 12.721875 15.39734375 13.09375 16.1171875 C13.5578125 17.02726562 14.021875 17.93734375 14.5 18.875 C14.9640625 19.77992187 15.428125 20.68484375 15.90625 21.6171875 C17 24 17 24 17 26 C14.1875 26.3125 14.1875 26.3125 11 26 C9.11400657 23.61107499 8 22.08148442 8 19 C7.34 19.33 6.68 19.66 6 20 C5.34227572 23.02934491 5.34227572 23.02934491 5 26 C3.35 26 1.7 26 0 26 C0 17.42 0 8.84 0 0 Z " fill="#5E6EFE" transform="translate(132,11)"/>
<path d="M0 0 C1.31291016 -0.03867187 1.31291016 -0.03867187 2.65234375 -0.078125 C5.0625 0.25 5.0625 0.25 6.8359375 1.25390625 C8.78231177 4.42141343 8.63939185 7.81903338 8.75 11.4375 C8.80124023 12.56188477 8.80124023 12.56188477 8.85351562 13.70898438 C8.93584294 15.55546838 9.00085281 17.40270994 9.0625 19.25 C6.43688891 19.33074203 3.81374324 19.3903623 1.1875 19.4375 C0.06794922 19.47520508 0.06794922 19.47520508 -1.07421875 19.51367188 C-3.2421875 19.54296875 -3.2421875 19.54296875 -6.9375 19.25 C-9.09252531 16.01746204 -9.40606135 14.99849077 -8.9375 11.25 C-7.9375 9.5 -7.9375 9.5 -5.9375 8.25 C-3.25693869 7.70542837 -0.67459108 7.47435173 2.0625 7.25 C1.7325 6.59 1.4025 5.93 1.0625 5.25 C-0.2575 5.25 -1.5775 5.25 -2.9375 5.25 C-3.2675 5.91 -3.5975 6.57 -3.9375 7.25 C-5.2575 6.92 -6.5775 6.59 -7.9375 6.25 C-7.5625 3.8125 -7.5625 3.8125 -6.9375 1.25 C-4.48367866 0.02308933 -2.73765897 0.04824069 0 0 Z M-2.9375 12.25 C-2.6075 13.24 -2.2775 14.23 -1.9375 15.25 C-0.6175 14.92 0.7025 14.59 2.0625 14.25 C2.0625 13.26 2.0625 12.27 2.0625 11.25 C-0.8629644 11.0263932 -0.8629644 11.0263932 -2.9375 12.25 Z " fill="#5E6DFE" transform="translate(199.9375,17.75)"/>
<path d="M0 0 C1.31291016 -0.03867187 1.31291016 -0.03867187 2.65234375 -0.078125 C5.0625 0.25 5.0625 0.25 6.8359375 1.25390625 C8.78231177 4.42141343 8.63939185 7.81903338 8.75 11.4375 C8.80124023 12.56188477 8.80124023 12.56188477 8.85351562 13.70898438 C8.93584294 15.55546838 9.00085281 17.40270994 9.0625 19.25 C6.43688891 19.33074203 3.81374324 19.3903623 1.1875 19.4375 C0.06794922 19.47520508 0.06794922 19.47520508 -1.07421875 19.51367188 C-3.2421875 19.54296875 -3.2421875 19.54296875 -6.9375 19.25 C-9.09252531 16.01746204 -9.40606135 14.99849077 -8.9375 11.25 C-7.9375 9.5 -7.9375 9.5 -5.9375 8.25 C-3.25693869 7.70542837 -0.67459108 7.47435173 2.0625 7.25 C1.7325 6.59 1.4025 5.93 1.0625 5.25 C-0.2575 5.25 -1.5775 5.25 -2.9375 5.25 C-3.2675 5.91 -3.5975 6.57 -3.9375 7.25 C-5.2575 6.92 -6.5775 6.59 -7.9375 6.25 C-7.5625 3.8125 -7.5625 3.8125 -6.9375 1.25 C-4.48367866 0.02308933 -2.73765897 0.04824069 0 0 Z M-2.9375 12.25 C-2.6075 13.24 -2.2775 14.23 -1.9375 15.25 C-0.6175 14.92 0.7025 14.59 2.0625 14.25 C2.0625 13.26 2.0625 12.27 2.0625 11.25 C-0.8629644 11.0263932 -0.8629644 11.0263932 -2.9375 12.25 Z " fill="#5E6DFE" transform="translate(119.9375,17.75)"/>
<path d="M0 0 C1.98 0 3.96 0 6 0 C6.04898438 0.92683594 6.09796875 1.85367187 6.1484375 2.80859375 C6.22320312 4.00613281 6.29796875 5.20367187 6.375 6.4375 C6.47941406 8.22994141 6.47941406 8.22994141 6.5859375 10.05859375 C6.72257812 11.02925781 6.85921875 11.99992187 7 13 C7.66 13.33 8.32 13.66 9 14 C9.66 13.67 10.32 13.34 11 13 C11.46954261 9.95418731 11.46954261 9.95418731 11.625 6.4375 C11.69976562 5.23996094 11.77453125 4.04242188 11.8515625 2.80859375 C11.90054688 1.88175781 11.94953125 0.95492188 12 0 C13.98 0 15.96 0 18 0 C18 6.27 18 12.54 18 19 C15.586875 19.0825 13.17375 19.165 10.6875 19.25 C9.93170654 19.28641602 9.17591309 19.32283203 8.3972168 19.36035156 C5.36410262 19.41072067 3.46058778 19.35823494 1.03125 17.46875 C-0.39371624 14.05746719 -0.32115001 10.87568485 -0.1875 7.25 C-0.17396484 6.55261719 -0.16042969 5.85523438 -0.14648438 5.13671875 C-0.1112945 3.42414459 -0.05749155 1.71197059 0 0 Z " fill="#5D6DFE" transform="translate(77,18)"/>
<path d="M0 0 C0.96808594 -0.01675781 1.93617188 -0.03351562 2.93359375 -0.05078125 C5.89997041 0.3591341 6.75636292 0.99207304 8.5625 3.3125 C8.2325 4.3025 7.9025 5.2925 7.5625 6.3125 C3.70604879 6.53286864 1.07026784 5.91605101 -2.4375 4.3125 C-2.4375 4.9725 -2.4375 5.6325 -2.4375 6.3125 C-1.81101563 6.44527344 -1.18453125 6.57804687 -0.5390625 6.71484375 C0.68683594 6.97974609 0.68683594 6.97974609 1.9375 7.25 C2.74960938 7.42402344 3.56171875 7.59804688 4.3984375 7.77734375 C6.5625 8.3125 6.5625 8.3125 8.5625 9.3125 C9.48200534 12.14764145 9.77186472 13.73272079 8.75 16.5625 C7.5625 18.3125 7.5625 18.3125 5.5625 19.3125 C3.75406337 19.45966542 1.93918434 19.5335887 0.125 19.5625 C-1.32712891 19.60117187 -1.32712891 19.60117187 -2.80859375 19.640625 C-5.4375 19.3125 -5.4375 19.3125 -7.28515625 17.984375 C-8.4375 16.3125 -8.4375 16.3125 -8.4375 13.3125 C-6.0625 12.6875 -6.0625 12.6875 -3.4375 12.3125 C-2.7775 12.9725 -2.1175 13.6325 -1.4375 14.3125 C-0.1175 14.3125 1.2025 14.3125 2.5625 14.3125 C1.93601563 14.04695313 1.30953125 13.78140625 0.6640625 13.5078125 C-0.15320313 13.15460937 -0.97046875 12.80140625 -1.8125 12.4375 C-2.62460938 12.08945312 -3.43671875 11.74140625 -4.2734375 11.3828125 C-6.4375 10.3125 -6.4375 10.3125 -8.4375 8.3125 C-7.89520384 1.80494611 -6.51282071 0.02594749 0 0 Z " fill="#5D6DFE" transform="translate(158.4375,17.6875)"/>
<path d="M0 0 C3.96 0 7.92 0 12 0 C11.67 1.98 11.34 3.96 11 6 C9.68 6 8.36 6 7 6 C6.34 10.29 5.68 14.58 5 19 C3.35 19 1.7 19 0 19 C0 12.73 0 6.46 0 0 Z " fill="#5F6EFF" transform="translate(99,18)"/>
<path d="M0 0 C1.32 0 2.64 0 4 0 C4 1.65 4 3.3 4 5 C2.35 4.67 0.7 4.34 -1 4 C-0.67 2.68 -0.34 1.36 0 0 Z " fill="#5E6EFF" transform="translate(42,0)"/>
</svg>
